<svg width="54" height="47" viewBox="0 0 54 47" fill="none" xmlns="http://www.w3.org/2000/svg">
<path d="M35.6876 17.896C35.6876 27.7799 27.6987 35.7921 17.8439 35.7921C7.98901 35.7921 0 27.7799 0 17.896C0 8.01196 7.98901 -0.00012207 17.8439 -0.00012207C27.6987 -0.00012207 35.6876 8.01196 35.6876 17.896ZM17.8439 6.26318C11.4384 6.26318 6.24536 11.4712 6.24536 17.896C6.24536 24.3204 11.4384 29.5287 17.8439 29.5287C24.2496 29.5287 29.4424 24.3204 29.4424 17.896C29.4424 11.4712 24.2496 6.26318 17.8439 6.26318Z" fill="#5B4DBC"/>
<path opacity="0.8" d="M35.3308 47.0044L16.6569 28.2754L35.3308 9.54712L54.0048 28.2754L35.3308 47.0044Z" fill="#FFDD86"/>
</svg>
