<svg width="93" height="36" viewBox="0 0 93 36" fill="none" xmlns="http://www.w3.org/2000/svg">
<circle cx="82" cy="11" r="11" fill="url(#paint0_linear_3_180)"/>
<path d="M25.1786 33.5898C23.668 32.3999 22.7632 30.7842 22.4629 28.7451H27.5331C27.6927 29.4243 28.0577 29.9556 28.6279 30.3354C29.1982 30.7144 29.9433 30.9058 30.8633 30.9058C31.9227 30.9058 32.7781 30.6006 33.4282 29.9907C34.0783 29.3799 34.4027 28.4058 34.4027 27.0649V24.125C33.963 25.126 33.2825 25.9155 32.3637 26.4946C31.4437 27.0752 30.3425 27.3652 29.0639 27.3652C27.6839 27.3652 26.4483 27.0205 25.3585 26.3301C24.2674 25.6406 23.4082 24.6455 22.7784 23.3457C22.1486 22.0454 21.8331 20.5249 21.8331 18.7847C21.8331 17.0259 22.1486 15.5 22.7784 14.21C23.4082 12.9199 24.2674 11.9292 25.3585 11.2397C26.4483 10.5503 27.6839 10.2056 29.0639 10.2056C30.3425 10.2056 31.4437 10.4946 32.3637 11.0752C33.2825 11.6553 33.963 12.4448 34.4027 13.4448V10.4146H39.5033V27.0649C39.5033 28.625 39.2029 30.0303 38.6035 31.2798C38.0029 32.5303 37.0829 33.5254 35.8435 34.2651C34.6029 35.0054 33.0632 35.3755 31.2232 35.3755C28.7027 35.3755 26.6878 34.7798 25.1786 33.5898ZM28.0577 15.7852C27.3873 16.5049 27.0528 17.5063 27.0528 18.7847C27.0528 20.0659 27.3873 21.0645 28.0577 21.7856C28.7281 22.5054 29.6126 22.8652 30.7138 22.8652C31.7935 22.8652 32.678 22.4951 33.3686 21.7554C34.058 21.0151 34.4027 20.0254 34.4027 18.7847C34.4027 17.5254 34.058 16.5303 33.3686 15.7993C32.678 15.0708 31.7935 14.7056 30.7138 14.7056C29.6126 14.7056 28.7281 15.0654 28.0577 15.7852ZM68.9777 26.3301C67.7067 25.6406 66.7119 24.6455 65.9921 23.3457C65.2723 22.0454 64.9124 20.5249 64.9124 18.7847C64.9124 17.0259 65.2673 15.5 65.9769 14.21C66.6866 12.9199 67.6826 11.9292 68.9625 11.2397C70.2424 10.5503 71.7022 10.2056 73.342 10.2056C75.0021 10.2056 76.4619 10.5454 77.7228 11.2246C78.9825 11.9053 79.9569 12.8594 80.6476 14.0898C81.3369 15.3203 81.6829 16.7358 81.6829 18.335C81.6829 18.7559 81.6322 19.2158 81.5321 19.7148H69.9218C69.9826 20.9746 70.3019 21.8809 70.8823 22.4307C71.4627 22.9805 72.2028 23.2554 73.1025 23.2554C73.8616 23.2554 74.4927 23.0654 74.9919 22.6855C75.4925 22.3052 75.822 21.8159 75.9829 21.2153H81.4117C81.1925 22.395 80.7122 23.4507 79.9722 24.3809C79.2321 25.3096 78.2918 26.041 77.1526 26.5708C76.0121 27.1006 74.7423 27.3652 73.342 27.3652C71.7022 27.3652 70.2475 27.0205 68.9777 26.3301ZM71.0027 15.0947C70.3818 15.6548 70.032 16.4746 69.9522 17.5557H76.4923C76.5126 16.4556 76.2174 15.6309 75.6078 15.0806C74.997 14.5308 74.2418 14.2544 73.342 14.2544C72.4017 14.2544 71.6224 14.5347 71.0027 15.0947ZM51.9081 26.3301C50.6371 25.6406 49.6424 24.6455 48.9226 23.3457C48.2028 22.0454 47.8429 20.5249 47.8429 18.7847C47.8429 17.0259 48.1977 15.5 48.9074 14.21C49.617 12.9199 50.613 11.9292 51.8929 11.2397C53.1729 10.5503 54.6327 10.2056 56.2725 10.2056C57.9326 10.2056 59.3924 10.5454 60.6533 11.2246C61.9129 11.9053 62.8874 12.8594 63.578 14.0898C64.2674 15.3203 64.6121 16.7358 64.6121 18.335C64.6121 18.7559 64.5627 19.2158 64.4626 19.7148H52.8522C52.9131 20.9746 53.2324 21.8809 53.8128 22.4307C54.3919 22.9805 55.132 23.2554 56.033 23.2554C56.7921 23.2554 57.4218 23.0654 57.9224 22.6855C58.4217 22.3052 58.7524 21.8159 58.9121 21.2153H64.3422C64.123 22.395 63.6427 23.4507 62.9026 24.3809C62.1626 25.3096 61.2223 26.041 60.083 26.5708C58.9425 27.1006 57.6728 27.3652 56.2725 27.3652C54.6327 27.3652 53.1779 27.0205 51.9081 26.3301ZM53.9332 15.0947C53.3123 15.6548 52.9625 16.4746 52.8827 17.5557H59.4228C59.4418 16.4556 59.1478 15.6309 58.5383 15.0806C57.9275 14.5308 57.1722 14.2544 56.2725 14.2544C55.3322 14.2544 54.5529 14.5347 53.9332 15.0947ZM41.5397 27.1597V4.95947H46.6694V27.1597H41.5397ZM16.7629 27.1548L15.4437 23.2847H7.49313L6.17395 27.1548H0.773041L8.54367 6.09473H14.454L22.2234 27.1548H16.7629ZM8.8136 19.3853H14.1233L11.4836 11.5854L8.8136 19.3853Z" fill="black"/>
<defs>
<linearGradient id="paint0_linear_3_180" x1="76.3952" y1="22" x2="87.6048" y2="22" gradientUnits="userSpaceOnUse">
<stop offset="1" stop-color="#00C0FF"/>
<stop offset="0.810627" stop-color="#3687F7"/>
<stop offset="0.613525" stop-color="#6B4DEF"/>
<stop stop-color="#FF0072"/>
</linearGradient>
</defs>
</svg>
