<svg width="93" height="36" viewBox="0 0 93 36" fill="none" xmlns="http://www.w3.org/2000/svg">
<circle cx="82" cy="11" r="11" fill="url(#paint0_linear_3_186)"/>
<path d="M25.1782 33.5899C23.668 32.4001 22.7635 30.7846 22.4629 28.7452H27.5335C27.6928 29.4247 28.0582 29.9548 28.6279 30.3355C29.1985 30.7144 29.9428 30.9052 30.8635 30.9052C31.9228 30.9052 32.7778 30.6001 33.4285 29.9899C34.0783 29.3797 34.4032 28.405 34.4032 27.0649V24.1255C33.9631 25.1254 33.2827 25.9147 32.3629 26.4952C31.4431 27.0757 30.3433 27.3655 29.0635 27.3655C27.6829 27.3655 26.4481 27.0199 25.3582 26.3305C24.2683 25.6402 23.4079 24.6457 22.7779 23.3452C22.1479 22.0456 21.8329 20.5255 21.8329 18.7849C21.8329 17.0254 22.1479 15.5008 22.7779 14.2102C23.4079 12.9196 24.2683 11.9305 25.3582 11.2402C26.4481 10.5499 27.6829 10.2052 29.0635 10.2052C30.3433 10.2052 31.4431 10.495 32.3629 11.0755C33.2827 11.6551 33.9631 12.4453 34.4032 13.4452V10.4149H39.5035V27.0649C39.5035 28.6255 39.2029 30.0304 38.6035 31.2805C38.0032 32.5297 37.0834 33.5251 35.8432 34.2649C34.603 35.0047 33.0631 35.3755 31.2235 35.3755C28.7035 35.3755 26.6884 34.7797 25.1782 33.5899ZM28.0582 15.7852C27.3877 16.5052 27.0529 17.506 27.0529 18.7849C27.0529 20.0656 27.3877 21.0646 28.0582 21.7855C28.7278 22.5055 29.6134 22.8655 30.7132 22.8655C31.7932 22.8655 32.6779 22.4956 33.3682 21.7549C34.0585 21.016 34.4032 20.0251 34.4032 18.7849C34.4032 17.5249 34.0585 16.5304 33.3682 15.7996C32.6779 15.0706 31.7932 14.7052 30.7132 14.7052C29.6134 14.7052 28.7278 15.0652 28.0582 15.7852ZM68.9776 26.3305C67.7068 25.6402 66.7123 24.6457 65.9923 23.3452C65.2723 22.0456 64.9123 20.5255 64.9123 18.7849C64.9123 17.0254 65.2669 15.5008 65.977 14.2102C66.6871 12.9196 67.6825 11.9305 68.9623 11.2402C70.2421 10.5499 71.7019 10.2052 73.3426 10.2052C75.0022 10.2052 76.462 10.5454 77.722 11.2249C78.982 11.9053 79.9576 12.8602 80.647 14.0905C81.3373 15.3199 81.682 16.7356 81.682 18.3349C81.682 18.7552 81.6325 19.2151 81.5326 19.7155H69.9226C69.982 20.9746 70.3024 21.8809 70.882 22.4299C71.4625 22.9807 72.2023 23.2552 73.1023 23.2552C73.8619 23.2552 74.4919 23.0653 74.9923 22.6855C75.4918 22.3057 75.8221 21.8152 75.9823 21.2149H81.412C81.1924 22.3957 80.7118 23.4505 79.972 24.3802C79.2322 25.3099 78.2926 26.0407 77.1523 26.5699C76.012 27.1009 74.7421 27.3655 73.3426 27.3655C71.7019 27.3655 70.2475 27.0199 68.9776 26.3305ZM71.0026 15.0958C70.3825 15.6547 70.0324 16.4755 69.9523 17.5555H76.4926C76.5124 16.4557 76.2172 15.6304 75.607 15.0805C74.9968 14.5306 74.2426 14.2552 73.3426 14.2552C72.4021 14.2552 71.6218 14.5351 71.0026 15.0958ZM51.9073 26.3305C50.6374 25.6402 49.6429 24.6457 48.9229 23.3452C48.2029 22.0456 47.8429 20.5255 47.8429 18.7849C47.8429 17.0254 48.1975 15.5008 48.9076 14.2102C49.6177 12.9196 50.6122 11.9305 51.8929 11.2402C53.1727 10.5499 54.6325 10.2052 56.2723 10.2052C57.9328 10.2052 59.3926 10.5454 60.6526 11.2249C61.9126 11.9053 62.8873 12.8602 63.5776 14.0905C64.2679 15.3199 64.6126 16.7356 64.6126 18.3349C64.6126 18.7552 64.5622 19.2151 64.4623 19.7155H52.8523C52.9126 20.9746 53.2321 21.8809 53.8126 22.4299C54.3922 22.9807 55.1329 23.2552 56.0329 23.2552C56.7925 23.2552 57.4225 23.0653 57.9229 22.6855C58.4224 22.3057 58.7527 21.8152 58.9129 21.2149H64.3426C64.1221 22.3957 63.6424 23.4505 62.9026 24.3802C62.1628 25.3099 61.2223 26.0407 60.0829 26.5699C58.9426 27.1009 57.6727 27.3655 56.2723 27.3655C54.6325 27.3655 53.1772 27.0199 51.9073 26.3305ZM53.9323 15.0958C53.3122 15.6547 52.9621 16.4755 52.8829 17.5555H59.4223C59.4421 16.4557 59.1478 15.6304 58.5376 15.0805C57.9274 14.5306 57.1723 14.2552 56.2723 14.2552C55.3327 14.2552 54.5524 14.5351 53.9323 15.0958ZM41.5402 27.1603V4.96H46.6702V27.1603H41.5402ZM16.7632 27.1549L15.4438 23.2849H7.4932L6.17381 27.1549H0.773804L8.5435 6.0949H14.4538L22.2235 27.1549H16.7632ZM8.8135 19.3852H14.1235L11.4838 11.5849L8.8135 19.3852Z" fill="black"/>
<defs>
<linearGradient id="paint0_linear_3_186" x1="76.3952" y1="22" x2="87.6048" y2="22" gradientUnits="userSpaceOnUse">
<stop offset="1" stop-color="#00C0FF"/>
<stop offset="0.810627" stop-color="#3687F7"/>
<stop offset="0.613525" stop-color="#6B4DEF"/>
<stop stop-color="#FF0072"/>
</linearGradient>
</defs>
</svg>
