<svg width="18" height="24" viewBox="0 0 18 24" fill="none" xmlns="http://www.w3.org/2000/svg">
<path d="M-0.000305176 14.9992V8.9989C-0.000305176 4.03632 4.03711 -0.00109863 8.99969 -0.00109863C13.9623 -0.00109863 17.9997 4.03632 17.9997 8.9989V14.9992C17.9997 19.9618 13.9623 23.9992 8.99969 23.9992C4.03711 23.9992 -0.000305176 19.9618 -0.000305176 14.9992ZM1.99951 8.9989V14.9992C1.99951 18.8593 5.1405 21.9995 8.99969 21.9995C12.8589 21.9995 15.9999 18.8593 15.9999 14.9992V8.9989C15.9999 5.13971 12.8589 1.99872 8.99969 1.99872C5.1405 1.99872 1.99951 5.13971 1.99951 8.9989ZM7.99982 7.99902V4.99933C7.99982 4.44763 8.44711 3.99945 8.99969 3.99945C9.55231 3.99945 9.9996 4.44763 9.9996 4.99933V7.99902C9.9996 8.55164 9.55231 8.9989 8.99969 8.9989C8.44711 8.9989 7.99982 8.55164 7.99982 7.99902Z" fill="black"/>
</svg>
